<mxfile host="app.diagrams.net" agent="Mozilla/5.0 (Macintosh; Intel Mac OS X 10_15_7) AppleWebKit/537.36 (KHTML, like Gecko) Chrome/134.0.0.0 Safari/537.36" version="26.1.1">
  <diagram id="m0JcYJeQNsRRbBRGSMt7" name="Page-1">
    <mxGraphModel dx="1285" dy="784" grid="1" gridSize="10" guides="1" tooltips="1" connect="1" arrows="1" fold="1" page="1" pageScale="1" pageWidth="850" pageHeight="1100" math="0" shadow="0">
      <root>
        <mxCell id="0" />
        <mxCell id="1" parent="0" />
        <mxCell id="note1" value="AI Architecture" style="text;html=1;strokeColor=none;fillColor=none;align=center;verticalAlign=middle;whiteSpace=wrap;rounded=0;fontSize=16;fontStyle=1" parent="1" vertex="1">
          <mxGeometry x="300" width="250" height="30" as="geometry" />
        </mxCell>
        <mxCell id="thread1" value="Main Thread" style="rounded=1;whiteSpace=wrap;html=1;fillColor=#E6F0FF;strokeColor=#6c8ebf;dashed=1;verticalAlign=top;fontSize=14;fontStyle=1" parent="1" vertex="1">
          <mxGeometry x="60" y="40" width="730" height="250" as="geometry" />
        </mxCell>
        <mxCell id="gameLoop" value="Game Loop" style="rounded=1;whiteSpace=wrap;html=1;fillColor=#ffe6cc;strokeColor=#d79b00;fontSize=12;fontStyle=1" parent="1" vertex="1">
          <mxGeometry x="105" y="60" width="120" height="60" as="geometry" />
        </mxCell>
        <mxCell id="aiPlayer" value="AIPlayer" style="rounded=1;whiteSpace=wrap;html=1;fillColor=#dae8fc;strokeColor=#6c8ebf;verticalAlign=top;fontSize=13;fontStyle=1" parent="1" vertex="1">
          <mxGeometry x="100" y="160" width="640" height="120" as="geometry" />
        </mxCell>
        <mxCell id="updateMethod" value="update(game_state)" style="rounded=0;whiteSpace=wrap;html=1;fillColor=#f5f5f5;strokeColor=#666666;fontSize=11;" parent="1" vertex="1">
          <mxGeometry x="110" y="235" width="110" height="30" as="geometry" />
        </mxCell>
        <mxCell id="actionMethod" value="action()" style="rounded=0;whiteSpace=wrap;html=1;fillColor=#f5f5f5;strokeColor=#666666;fontSize=11;" parent="1" vertex="1">
          <mxGeometry x="397.5" y="210" width="110" height="30" as="geometry" />
        </mxCell>
        <mxCell id="actionQueue" value="action_queue" style="shape=cylinder3;whiteSpace=wrap;html=1;boundedLbl=1;backgroundOutline=1;size=15;fillColor=#fff2cc;strokeColor=#d6b656;fontSize=11;" parent="1" vertex="1">
          <mxGeometry x="640" y="185" width="60" height="80" as="geometry" />
        </mxCell>
        <mxCell id="thread2" value="Background Thread" style="rounded=1;whiteSpace=wrap;html=1;fillColor=#E6FFEE;strokeColor=#82b366;dashed=1;verticalAlign=top;fontSize=14;fontStyle=1" parent="1" vertex="1">
          <mxGeometry x="60" y="320" width="750" height="650" as="geometry" />
        </mxCell>
        <mxCell id="thinker" value="Thinker" style="rounded=1;whiteSpace=wrap;html=1;fillColor=#d5e8d4;strokeColor=#82b366;verticalAlign=top;fontSize=13;fontStyle=1" parent="1" vertex="1">
          <mxGeometry x="100" y="370" width="670" height="260" as="geometry" />
        </mxCell>
        <mxCell id="thinkMethod" value="think(game_state)" style="rounded=0;whiteSpace=wrap;html=1;fillColor=#f5f5f5;strokeColor=#666666;fontSize=11;" parent="1" vertex="1">
          <mxGeometry x="115" y="400" width="120" height="30" as="geometry" />
        </mxCell>
        <mxCell id="computeMethod" value="compute_loop" style="rounded=0;whiteSpace=wrap;html=1;fillColor=#f5f5f5;strokeColor=#666666;fontSize=11;" parent="1" vertex="1">
          <mxGeometry x="240" y="455" width="110" height="30" as="geometry" />
        </mxCell>
        <mxCell id="predictMethod" value="predict_collision" style="rounded=0;whiteSpace=wrap;html=1;fillColor=#f5f5f5;strokeColor=#666666;fontSize=11;" parent="1" vertex="1">
          <mxGeometry x="350" y="400" width="110" height="30" as="geometry" />
        </mxCell>
        <mxCell id="movementMethod" value="plan_movement" style="rounded=0;whiteSpace=wrap;html=1;fillColor=#f5f5f5;strokeColor=#666666;fontSize=11;" parent="1" vertex="1">
          <mxGeometry x="490" y="410" width="110" height="30" as="geometry" />
        </mxCell>
        <mxCell id="planMethod" value="plan_actions" style="rounded=0;whiteSpace=wrap;html=1;fillColor=#f5f5f5;strokeColor=#666666;fontSize=11;" parent="1" vertex="1">
          <mxGeometry x="650" y="410" width="110" height="30" as="geometry" />
        </mxCell>
        <mxCell id="powerupMethod" value="determine_powerup_usage()" style="rounded=0;whiteSpace=wrap;html=1;fillColor=#f5f5f5;strokeColor=#666666;fontSize=11;" parent="1" vertex="1">
          <mxGeometry x="130" y="500" width="150" height="30" as="geometry" />
        </mxCell>
        <mxCell id="generateMethod" value="generate_action_sequence" style="rounded=0;whiteSpace=wrap;html=1;fillColor=#f5f5f5;strokeColor=#666666;fontSize=11;" parent="1" vertex="1">
          <mxGeometry x="397.5" y="510" width="170" height="30" as="geometry" />
        </mxCell>
        <mxCell id="thinkerData" value="prediction_accuracy, waiting flag" style="rounded=0;whiteSpace=wrap;html=1;fillColor=#E6FFEE;strokeColor=#82b366;fontSize=10;" parent="1" vertex="1">
          <mxGeometry x="540" y="470" width="170" height="20" as="geometry" />
        </mxCell>
        <mxCell id="moveNote" value="Paddle Movement Planning:&#xa;- Calculates exact frames to reach position&#xa;- Accounts for paddle size and speed&#xa;- Ensures no overshooting of targets" style="shape=note;whiteSpace=wrap;html=1;backgroundOutline=1;darkOpacity=0.05;fillColor=#d5e8d4;strokeColor=#82b366;fontSize=9;align=left;spacing=3;size=15;" vertex="1" parent="1">
          <mxGeometry x="340" y="550" width="180" height="70" as="geometry" />
        </mxCell>
        <mxCell id="powerupDiagramNote" value="Powerup Decision Logic:&#xa;- &#39;big&#39; - increases paddle size&#xa;- &#39;speed&#39; - slows/speeds ball based on direction&#xa;- Activates based on metrics from Learner" style="shape=note;whiteSpace=wrap;html=1;backgroundOutline=1;darkOpacity=0.05;fillColor=#d5e8d4;strokeColor=#82b366;fontSize=9;align=left;spacing=3;size=15;" vertex="1" parent="1">
          <mxGeometry x="567.5" y="550" width="180" height="70" as="geometry" />
        </mxCell>
        <mxCell id="learner" value="Learner" style="rounded=1;whiteSpace=wrap;html=1;fillColor=#e1d5e7;strokeColor=#9673a6;verticalAlign=top;fontSize=13;fontStyle=1" parent="1" vertex="1">
          <mxGeometry x="100" y="640" width="670" height="315" as="geometry" />
        </mxCell>
        <mxCell id="updateGameState" value="update_with_game_state" style="rounded=0;whiteSpace=wrap;html=1;fillColor=#f5f5f5;strokeColor=#666666;fontSize=11;" parent="1" vertex="1">
          <mxGeometry x="145" y="670" width="150" height="30" as="geometry" />
        </mxCell>
        <mxCell id="getMetrics" value="get_metrics" style="rounded=0;whiteSpace=wrap;html=1;fillColor=#f5f5f5;strokeColor=#666666;fontSize=11;" parent="1" vertex="1">
          <mxGeometry x="385" y="750" width="110" height="30" as="geometry" />
        </mxCell>
        <mxCell id="aiStats" value="ai_stats" style="shape=cylinder3;whiteSpace=wrap;html=1;boundedLbl=1;backgroundOutline=1;size=10;fillColor=#e1d5e7;strokeColor=#9673a6;fontSize=11;" parent="1" vertex="1">
          <mxGeometry x="115" y="730" width="80" height="50" as="geometry" />
        </mxCell>
        <mxCell id="opponentTracking" value="opponent_tracking" style="shape=cylinder3;whiteSpace=wrap;html=1;boundedLbl=1;backgroundOutline=1;size=10;fillColor=#e1d5e7;strokeColor=#9673a6;fontSize=11;" parent="1" vertex="1">
          <mxGeometry x="150" y="800" width="100" height="50" as="geometry" />
        </mxCell>
        <mxCell id="powerupTracking" value="powerup_state" style="shape=cylinder3;whiteSpace=wrap;html=1;boundedLbl=1;backgroundOutline=1;size=10;fillColor=#e1d5e7;strokeColor=#9673a6;fontSize=11;" parent="1" vertex="1">
          <mxGeometry x="250" y="750" width="80" height="50" as="geometry" />
        </mxCell>
        <mxCell id="powerupNote" value="Powerup Decision Tree:&#xa;1. Check powerup availability&#xa;2. Evaluate game criticality&#xa;3. Consider ball direction&#xa;4. Analyze opponent behavior&#xa;5. Calculate value vs threshold" style="shape=note;whiteSpace=wrap;html=1;backgroundOutline=1;darkOpacity=0.05;fillColor=#fff2cc;strokeColor=#d6b656;fontSize=9;align=left;spacing=3;size=15;" parent="1" vertex="1">
          <mxGeometry x="567.5" y="757.5" width="180" height="80" as="geometry" />
        </mxCell>
        <mxCell id="trackingNote" value="Opponent Tracking:&#xa;1. Records paddle movement patterns&#xa;2. Analyzes ball response behavior&#xa;3. Identifies position bias (top/middle/bottom)&#xa;4. Detects skill level from interception rate" style="shape=note;whiteSpace=wrap;html=1;backgroundOutline=1;darkOpacity=0.05;fillColor=#e1d5e7;strokeColor=#9673a6;fontSize=9;align=left;spacing=3;size=15;" vertex="1" parent="1">
          <mxGeometry x="567.5" y="860" width="180" height="70" as="geometry" />
        </mxCell>
        <mxCell id="statsNote" value="AI Performance Metrics:&#xa;1. Success rate (balls intercepted)&#xa;2. Consecutive goals (streak tracking)&#xa;3. Powerup usage effectiveness&#xa;4. Difficulty adaptation signals" style="shape=note;whiteSpace=wrap;html=1;backgroundOutline=1;darkOpacity=0.05;fillColor=#e1d5e7;strokeColor=#9673a6;fontSize=9;align=left;spacing=3;size=15;" vertex="1" parent="1">
          <mxGeometry x="130" y="860" width="180" height="70" as="geometry" />
        </mxCell>
        <mxCell id="strategyNote" value="Strategic Decision Making:&#xa;1. Game context (score, end-game)&#xa;2. Ball trajectory analysis&#xa;3. Opponent pattern recognition&#xa;4. Adaptive difficulty adjustment" style="shape=note;whiteSpace=wrap;html=1;backgroundOutline=1;darkOpacity=0.05;fillColor=#e1d5e7;strokeColor=#9673a6;fontSize=9;align=left;spacing=3;size=15;" vertex="1" parent="1">
          <mxGeometry x="350" y="860" width="180" height="70" as="geometry" />
        </mxCell>
        <mxCell id="flow1" style="edgeStyle=orthogonalEdgeStyle;rounded=0;orthogonalLoop=1;jettySize=auto;html=1;exitX=0.5;exitY=1;exitDx=0;exitDy=0;entryX=0.5;entryY=0;entryDx=0;entryDy=0;" parent="1" source="gameLoop" target="updateMethod" edge="1">
          <mxGeometry relative="1" as="geometry" />
        </mxCell>
        <mxCell id="flow1label" value="game_state" style="edgeLabel;html=1;align=center;verticalAlign=middle;resizable=0;points=[];fontSize=9;" parent="flow1" vertex="1" connectable="0">
          <mxGeometry x="-0.1429" y="1" relative="1" as="geometry">
            <mxPoint x="-1" y="-7" as="offset" />
          </mxGeometry>
        </mxCell>
        <mxCell id="flow14" style="edgeStyle=orthogonalEdgeStyle;rounded=0;orthogonalLoop=1;jettySize=auto;html=1;exitX=0.75;exitY=1;exitDx=0;exitDy=0;entryX=0;entryY=0.5;entryDx=0;entryDy=0;" parent="1" source="gameLoop" target="actionMethod" edge="1">
          <mxGeometry relative="1" as="geometry">
            <Array as="points">
              <mxPoint x="195" y="225" />
            </Array>
          </mxGeometry>
        </mxCell>
        <mxCell id="flow14label" value="request action (every frame)" style="edgeLabel;html=1;align=center;verticalAlign=middle;resizable=0;points=[];fontSize=9;" parent="flow14" vertex="1" connectable="0">
          <mxGeometry x="0.0296" y="-2" relative="1" as="geometry">
            <mxPoint x="27" as="offset" />
          </mxGeometry>
        </mxCell>
        <mxCell id="flow16" style="edgeStyle=orthogonalEdgeStyle;rounded=0;orthogonalLoop=1;jettySize=auto;html=1;exitX=0.75;exitY=0;exitDx=0;exitDy=0;entryX=1;entryY=0.5;entryDx=0;entryDy=0;dashed=1;" parent="1" source="adaptMethod" target="gameLoop" edge="1">
          <mxGeometry relative="1" as="geometry">
            <Array as="points" />
          </mxGeometry>
        </mxCell>
        <mxCell id="flow16label" value="return action" style="edgeLabel;html=1;align=center;verticalAlign=middle;resizable=0;points=[];fontSize=9;" parent="flow16" vertex="1" connectable="0">
          <mxGeometry x="0.0435" y="-1" relative="1" as="geometry">
            <mxPoint x="4" y="21" as="offset" />
          </mxGeometry>
        </mxCell>
        <mxCell id="flow2" style="edgeStyle=orthogonalEdgeStyle;rounded=0;orthogonalLoop=1;jettySize=auto;html=1;exitX=1;exitY=0.5;exitDx=0;exitDy=0;entryX=0;entryY=0.5;entryDx=0;entryDy=0;entryPerimeter=0;" parent="1" source="updateMethod" target="actionQueue" edge="1">
          <mxGeometry relative="1" as="geometry">
            <Array as="points">
              <mxPoint x="540" y="250" />
              <mxPoint x="540" y="225" />
            </Array>
          </mxGeometry>
        </mxCell>
        <mxCell id="flow2label" value="clear queue" style="edgeLabel;html=1;align=center;verticalAlign=middle;resizable=0;points=[];fontSize=9;" parent="flow2" vertex="1" connectable="0">
          <mxGeometry x="-0.2821" y="-1" relative="1" as="geometry">
            <mxPoint x="16" y="-1" as="offset" />
          </mxGeometry>
        </mxCell>
        <mxCell id="flow15" style="edgeStyle=orthogonalEdgeStyle;rounded=0;orthogonalLoop=1;jettySize=auto;html=1;entryX=0.5;entryY=1;entryDx=0;entryDy=0;entryPerimeter=0;" parent="1" source="actionMethod" target="actionQueue" edge="1">
          <mxGeometry relative="1" as="geometry">
            <Array as="points">
              <mxPoint x="340" y="225" />
              <mxPoint x="340" y="265" />
            </Array>
          </mxGeometry>
        </mxCell>
        <mxCell id="flow15label" value="get action" style="edgeLabel;html=1;align=center;verticalAlign=middle;resizable=0;points=[];fontSize=9;" parent="flow15" vertex="1" connectable="0">
          <mxGeometry x="-0.2" y="-1" relative="1" as="geometry">
            <mxPoint x="20" y="-1" as="offset" />
          </mxGeometry>
        </mxCell>
        <mxCell id="flow3" style="edgeStyle=orthogonalEdgeStyle;rounded=0;orthogonalLoop=1;jettySize=auto;html=1;exitX=0.5;exitY=1;exitDx=0;exitDy=0;entryX=0.25;entryY=0;entryDx=0;entryDy=0;" parent="1" source="updateMethod" target="thinkMethod" edge="1">
          <mxGeometry relative="1" as="geometry">
            <Array as="points">
              <mxPoint x="165" y="290" />
              <mxPoint x="150" y="290" />
              <mxPoint x="150" y="390" />
              <mxPoint x="145" y="390" />
            </Array>
          </mxGeometry>
        </mxCell>
        <mxCell id="flow3label" value="game_state" style="edgeLabel;html=1;align=center;verticalAlign=middle;resizable=0;points=[];fontSize=9;" parent="flow3" vertex="1" connectable="0">
          <mxGeometry x="0.1634" y="-1" relative="1" as="geometry">
            <mxPoint y="5" as="offset" />
          </mxGeometry>
        </mxCell>
        <mxCell id="flow4" style="edgeStyle=orthogonalEdgeStyle;rounded=0;orthogonalLoop=1;jettySize=auto;html=1;exitX=1;exitY=0.5;exitDx=0;exitDy=0;entryX=0;entryY=0.5;entryDx=0;entryDy=0;" parent="1" source="thinkMethod" target="computeMethod" edge="1">
          <mxGeometry relative="1" as="geometry" />
        </mxCell>
        <mxCell id="flow5" style="edgeStyle=orthogonalEdgeStyle;rounded=0;orthogonalLoop=1;jettySize=auto;html=1;exitX=1;exitY=0;exitDx=0;exitDy=0;entryX=0;entryY=0.5;entryDx=0;entryDy=0;" parent="1" source="computeMethod" target="predictMethod" edge="1">
          <mxGeometry relative="1" as="geometry">
            <Array as="points">
              <mxPoint x="330" y="455" />
              <mxPoint x="330" y="415" />
            </Array>
          </mxGeometry>
        </mxCell>
        <mxCell id="flow9" style="edgeStyle=orthogonalEdgeStyle;rounded=0;orthogonalLoop=1;jettySize=auto;html=1;exitX=1;exitY=0.5;exitDx=0;exitDy=0;entryX=0;entryY=0.5;entryDx=0;entryDy=0;" parent="1" source="predictMethod" target="movementMethod" edge="1">
          <mxGeometry relative="1" as="geometry">
            <Array as="points">
              <mxPoint x="460" y="425" />
            </Array>
          </mxGeometry>
        </mxCell>
        <mxCell id="flow10" style="edgeStyle=orthogonalEdgeStyle;rounded=0;orthogonalLoop=1;jettySize=auto;html=1;exitX=1;exitY=0.5;exitDx=0;exitDy=0;entryX=0;entryY=0.5;entryDx=0;entryDy=0;" parent="1" source="movementMethod" target="planMethod" edge="1">
          <mxGeometry relative="1" as="geometry" />
        </mxCell>
        <mxCell id="flow11" style="edgeStyle=orthogonalEdgeStyle;rounded=0;orthogonalLoop=1;jettySize=auto;html=1;exitX=0.25;exitY=1;exitDx=0;exitDy=0;entryX=0.5;entryY=0;entryDx=0;entryDy=0;" parent="1" source="planMethod" target="powerupMethod" edge="1">
          <mxGeometry relative="1" as="geometry">
            <Array as="points">
              <mxPoint x="677" y="450" />
              <mxPoint x="205" y="450" />
            </Array>
          </mxGeometry>
        </mxCell>
        <mxCell id="flow6" style="edgeStyle=orthogonalEdgeStyle;rounded=0;orthogonalLoop=1;jettySize=auto;html=1;exitX=0.25;exitY=1;exitDx=0;exitDy=0;entryX=0.5;entryY=0;entryDx=0;entryDy=0;" parent="1" source="predNote" target="updateGameState" edge="1">
          <mxGeometry relative="1" as="geometry">
            <Array as="points">
              <mxPoint x="278" y="590" />
              <mxPoint x="220" y="590" />
            </Array>
          </mxGeometry>
        </mxCell>
        <mxCell id="flow6label" value="game_state" style="edgeLabel;html=1;align=center;verticalAlign=middle;resizable=0;points=[];fontSize=9;" parent="flow6" vertex="1" connectable="0">
          <mxGeometry x="0.0092" y="-1" relative="1" as="geometry">
            <mxPoint x="1" y="-6" as="offset" />
          </mxGeometry>
        </mxCell>
        <mxCell id="flow8" style="edgeStyle=orthogonalEdgeStyle;rounded=0;orthogonalLoop=1;jettySize=auto;html=1;exitX=0.75;exitY=0;exitDx=0;exitDy=0;entryX=0.5;entryY=1;entryDx=0;entryDy=0;dashed=1;" parent="1" source="getMetrics" target="computeMethod" edge="1">
          <mxGeometry relative="1" as="geometry">
            <Array as="points">
              <mxPoint x="470" y="700" />
              <mxPoint x="470" y="670" />
              <mxPoint x="330" y="670" />
              <mxPoint x="330" y="500" />
              <mxPoint x="295" y="500" />
            </Array>
          </mxGeometry>
        </mxCell>
        <mxCell id="flow8label" value="metrics" style="edgeLabel;html=1;align=center;verticalAlign=middle;resizable=0;points=[];fontSize=9;" parent="flow8" vertex="1" connectable="0">
          <mxGeometry x="-0.0857" y="-2" relative="1" as="geometry">
            <mxPoint as="offset" />
          </mxGeometry>
        </mxCell>
        <mxCell id="flow18" style="edgeStyle=orthogonalEdgeStyle;rounded=0;orthogonalLoop=1;jettySize=auto;html=1;exitX=0.5;exitY=1;exitDx=0;exitDy=0;entryX=0.5;entryY=0;entryDx=0;entryDy=0;entryPerimeter=0;" parent="1" source="updateGameState" target="opponentTracking" edge="1">
          <mxGeometry relative="1" as="geometry">
            <Array as="points">
              <mxPoint x="220" y="780" />
              <mxPoint x="200" y="780" />
            </Array>
          </mxGeometry>
        </mxCell>
        <mxCell id="flow19" style="edgeStyle=orthogonalEdgeStyle;rounded=0;orthogonalLoop=1;jettySize=auto;html=1;exitX=0.75;exitY=1;exitDx=0;exitDy=0;entryX=0.5;entryY=0;entryDx=0;entryDy=0;entryPerimeter=0;" edge="1" parent="1" source="updateGameState" target="powerupTracking">
          <mxGeometry relative="1" as="geometry" />
        </mxCell>
        <mxCell id="tfgb5BfSitUE9voaaF9T-3" style="edgeStyle=orthogonalEdgeStyle;rounded=0;orthogonalLoop=1;jettySize=auto;html=1;exitX=0.5;exitY=0;exitDx=0;exitDy=0;entryX=0.5;entryY=1;entryDx=0;entryDy=0;entryPerimeter=0;" edge="1" parent="1" source="generateMethod" target="actionQueue">
          <mxGeometry relative="1" as="geometry" />
        </mxCell>
        <mxCell id="tfgb5BfSitUE9voaaF9T-5" style="edgeStyle=orthogonalEdgeStyle;rounded=0;orthogonalLoop=1;jettySize=auto;html=1;exitX=0.25;exitY=1;exitDx=0;exitDy=0;entryX=0.5;entryY=0;entryDx=0;entryDy=0;entryPerimeter=0;" edge="1" parent="1" source="updateGameState" target="aiStats">
          <mxGeometry relative="1" as="geometry" />
        </mxCell>
        <mxCell id="tfgb5BfSitUE9voaaF9T-7" value="" style="edgeStyle=orthogonalEdgeStyle;rounded=0;orthogonalLoop=1;jettySize=auto;html=1;exitX=0.25;exitY=1;exitDx=0;exitDy=0;entryX=0.5;entryY=0;entryDx=0;entryDy=0;" edge="1" parent="1" source="computeMethod" target="predNote">
          <mxGeometry relative="1" as="geometry">
            <Array as="points" />
            <mxPoint x="278" y="440" as="sourcePoint" />
            <mxPoint x="220" y="670" as="targetPoint" />
          </mxGeometry>
        </mxCell>
        <mxCell id="predNote" value="Prediction Accuracy Selection:&#xa;- Higher accuracy = more precise but slower&#xa;- Easier difficulty = higher precision&#xa;- Adapts based on player performance" style="shape=note;whiteSpace=wrap;html=1;backgroundOutline=1;darkOpacity=0.05;fillColor=#d5e8d4;strokeColor=#82b366;fontSize=9;align=left;spacing=3;size=15;" vertex="1" parent="1">
          <mxGeometry x="135" y="550" width="180" height="70" as="geometry" />
        </mxCell>
        <mxCell id="tfgb5BfSitUE9voaaF9T-11" value="" style="edgeStyle=orthogonalEdgeStyle;rounded=0;orthogonalLoop=1;jettySize=auto;html=1;exitX=0.75;exitY=0;exitDx=0;exitDy=0;entryX=0;entryY=0.5;entryDx=0;entryDy=0;dashed=1;" edge="1" parent="1" source="updateMethod" target="adaptMethod">
          <mxGeometry relative="1" as="geometry">
            <Array as="points">
              <mxPoint x="193" y="190" />
            </Array>
            <mxPoint x="318" y="210" as="sourcePoint" />
            <mxPoint x="220" y="110" as="targetPoint" />
          </mxGeometry>
        </mxCell>
        <mxCell id="adaptMethod" value="adapt_difficulty()" style="rounded=0;whiteSpace=wrap;html=1;fillColor=#f5f5f5;strokeColor=#666666;fontSize=11;" parent="1" vertex="1">
          <mxGeometry x="240" y="185" width="110" height="25" as="geometry" />
        </mxCell>
      </root>
    </mxGraphModel>
  </diagram>
</mxfile>
